<svg height="512pt" viewBox="0 0 512.00109 512" width="512pt" xmlns="http://www.w3.org/2000/svg"><path d="m448.953125 179.867188c0 4.148437 3.363281 7.511718 7.511719 7.511718 4.148437 0 7.511718-3.363281 7.511718-7.511718v-19.636719h33.859376c5.195312 0 9.964843-2.835938 12.445312-7.402344s2.265625-10.113281-.5625-14.472656l-11.980469-18.464844 11.980469-18.46875c2.828125-4.359375 3.042969-9.90625.5625-14.472656-2.480469-4.566407-7.25-7.402344-12.445312-7.402344h-33.859376v-26.246094c0-29.390625-23.910156-53.300781-53.300781-53.300781h-329.191406c-.023437 0-.042969.00390625-.066406.00390625-.019531 0-.042969-.00390625-.066407-.00390625h-28.050781c-29.390625 0-53.300781 23.910156-53.300781 53.300781v405.347657c0 29.390624 23.910156 53.300781 53.300781 53.300781h28.050781c.023438 0 .042969-.003907.066407-.003907.023437 0 .042969.003907.066406.003907h329.191406c29.390625 0 53.300781-23.910157 53.300781-53.300781v-61.515626h33.855469c5.195313 0 9.96875-2.835937 12.449219-7.402343 2.480469-4.566407 2.265625-10.109375-.5625-14.472657l-11.980469-18.464843 11.980469-18.46875c2.828125-4.359375 3.042969-9.902344.5625-14.46875-2.480469-4.566407-7.25-7.402344-12.445312-7.402344h-33.859376v-10.980469h33.859376c5.195312 0 9.964843-2.835937 12.445312-7.402344 2.480469-4.566406 2.265625-10.109374-.5625-14.46875l-11.980469-18.46875 11.980469-18.46875c2.828125-4.359374 3.042969-9.902343.5625-14.46875-2.480469-4.566406-7.25-7.402343-12.445312-7.402343h-33.859376v-10.5c0-4.148438-3.363281-7.511719-7.511718-7.511719-4.148438 0-7.511719 3.363281-7.511719 7.511719v244.355469c0 21.109374-17.171875 38.28125-38.277344 38.28125h-321.683593v-481.90625h321.683593c21.105469 0 38.277344 17.171874 38.277344 38.277343zm-375.109375 317.058593h-20.542969c-21.109375 0-38.28125-17.171875-38.28125-38.277343v-405.347657c0-21.105469 17.171875-38.277343 38.28125-38.277343h20.542969zm422.414062-165.453125-11.421874 17.609375c-3.039063 4.683594-3.039063 10.734375 0 15.417969l11.421874 17.613281h-32.28125v-50.640625zm0-91.660156-11.421874 17.609375c-3.039063 4.683594-3.039063 10.734375 0 15.417969l11.421874 17.613281h-32.28125v-50.640625zm0-145.242188-11.421874 17.609376c-3.039063 4.683593-3.039063 10.734374 0 15.417968l11.421874 17.613282h-32.28125v-50.640626zm0 0"/><path d="m230.625 218.128906c0 4.777344-3.875 8.652344-8.652344 8.652344s-8.652344-3.875-8.652344-8.652344c0-4.78125 3.875-8.65625 8.652344-8.65625s8.652344 3.875 8.652344 8.65625zm0 0"/><path d="m324.585938 218.128906c0 4.777344-3.871094 8.652344-8.652344 8.652344-4.777344 0-8.652344-3.875-8.652344-8.652344 0-4.78125 3.875-8.65625 8.652344-8.65625 4.78125 0 8.652344 3.875 8.652344 8.65625zm0 0"/><path d="m174.289062 401.964844h55.371094c4.144532 0 7.5-3.359375 7.5-7.5 0-4.144532-3.355468-7.5-7.5-7.5h-55.371094c-4.140624 0-7.5 3.355468-7.5 7.5 0 4.140625 3.359376 7.5 7.5 7.5zm0 0"/><path d="m363.613281 401.964844c4.140625 0 7.5-3.359375 7.5-7.5 0-4.144532-3.359375-7.5-7.5-7.5h-99.535156c-4.140625 0-7.5 3.355468-7.5 7.5 0 4.140625 3.359375 7.5 7.5 7.5zm0 0"/><path d="m174.289062 426.140625h189.324219c4.140625 0 7.5-3.355469 7.5-7.5 0-4.140625-3.359375-7.5-7.5-7.5h-189.324219c-4.140624 0-7.5 3.359375-7.5 7.5 0 4.144531 3.359376 7.5 7.5 7.5zm0 0"/><path d="m383.3125 356.375h-228.722656c-10.144532 0-18.394532 8.25-18.394532 18.394531v19.695313c0 4.144531 3.359376 7.5 7.5 7.5 4.144532 0 7.5-3.355469 7.5-7.5v-19.695313c0-1.871093 1.523438-3.394531 3.394532-3.394531h228.722656c1.871094 0 3.394531 1.523438 3.394531 3.394531v63.566407c0 1.871093-1.523437 3.394531-3.394531 3.394531h-228.722656c-1.871094 0-3.394532-1.519531-3.394532-3.394531v-9.238282c0-4.140625-3.355468-7.5-7.5-7.5-4.140624 0-7.5 3.359375-7.5 7.5v9.238282c0 10.144531 8.25 18.394531 18.394532 18.394531h228.722656c10.144531 0 18.394531-8.25 18.394531-18.394531v-63.566407c0-10.144531-8.25-18.394531-18.394531-18.394531zm0 0"/><path d="m420.835938 123.082031c2.25-18.71875-10.929688-35.253906-32.054688-40.210937-16.195312-3.796875-33.972656-.726563-47.550781 8.226562-5.582031 3.683594-13.136719 10.992188-18.796875 18.191406-2.003906 2.550782-3.710938 5.007813-5.144532 7.378907-14.78125-9.921875-32.222656-15.058594-50.4375-14.632813-17.058593.402344-32.898437 5.800782-46.175781 14.730469-1.445312-2.402344-3.171875-4.890625-5.203125-7.476563-5.660156-7.199218-13.214844-14.507812-18.796875-18.191406-13.578125-8.949218-31.359375-12.027344-47.554687-8.226562-21.121094 4.960937-34.300782 21.492187-32.050782 40.210937.976563 8.09375 4.949219 14.539063 8.457032 20.226563 3.925781 6.367187 7.027344 11.394531 6.355468 17.855468-.472656 4.5-2.40625 9.171876-4.460937 14.117188-4.128906 9.964844-9.269531 22.363281-1.492187 35.941406 3.964843 6.925782 12.292968 14.398438 29.75 14.398438 3.410156 0 7.171874-.285156 11.3125-.917969.199218-.027344 9.976562-1.632813 20.367187-5.324219 5.476563 14.824219 14.941406 27.863282 27.476563 37.757813-2.453126 6.449219-7.164063 14.621093-16.027344 18.945312-4.042969 1.976563-6.324219 6.148438-5.808594 10.625.515625 4.484375 3.6875 8.027344 8.078125 9.03125 5.628906 1.285157 11.054687 1.917969 16.230469 1.917969 9.394531 0 17.945312-2.109375 25.382812-6.160156l3.761719 23.554687c1.773437 11.121094 11.238281 19.191407 22.5 19.191407s20.726563-8.070313 22.5-19.191407l3.757813-23.527343c7.433593 4.042968 15.996093 6.132812 25.386718 6.132812 5.175782 0 10.601563-.632812 16.230469-1.917969 4.390625-1.003906 7.5625-4.546875 8.078125-9.03125.515625-4.476562-1.765625-8.648437-5.808594-10.625-8.820312-4.300781-13.542968-12.550781-16.011718-19.039062 12.367187-9.886719 21.824218-22.96875 27.34375-37.699219 10.433593 3.714844 20.285156 5.328125 20.484374 5.359375 4.144532.628906 7.898438.914063 11.308594.914063 17.460938 0 25.789063-7.46875 29.753906-14.394532 7.777344-13.578125 2.636719-25.980468-1.496093-35.941406-2.050781-4.945312-3.988281-9.621094-4.457031-14.117188-.671876-6.460937 2.429687-11.488281 6.355468-17.855468 3.507813-5.6875 7.480469-12.132813 8.457032-20.226563zm-237.445313 81.78125c-5.691406 2.144531-12.402344 4.0625-18.652344 5.011719-16.949219 2.578125-23.382812-1.898438-25.792969-6.105469-3.921874-6.851562-1.785156-12.808593 2.335938-22.742187 2.371094-5.722656 4.824219-11.636719 5.519531-18.308594 1.203125-11.539062-3.953125-19.902344-8.503906-27.28125-3.085937-5.003906-5.75-9.324219-6.332031-14.148438-1.535156-12.75 9.234375-21.148437 20.589844-23.8125 3.476562-.816406 7.046874-1.21875 10.609374-1.21875 8.996094 0 17.949219 2.546876 25.257813 7.363282 6.976563 4.601562 16.320313 15.054687 20.480469 22.621094-16.828125 16.128906-27.242188 38.878906-26.9375 63.839843.058594 5.023438.550781 9.960938 1.425781 14.78125zm32.132813 77.796875c5.726562-5.234375 9.53125-11.480468 12.039062-17.136718 1.332031.71875 2.683594 1.410156 4.0625 2.066406 3.640625 1.734375 6.460938 4.640625 8.011719 8.125-5.75 4.386718-13.558594 7.375-24.113281 6.945312zm82.738281-6.96875c1.523437-3.46875 4.261719-6.328125 7.789062-7.992187 1.457031-.6875 2.878907-1.421875 4.285157-2.183594 2.511718 5.65625 6.316406 11.90625 12.046874 17.144531-10.582031.425782-18.371093-2.574218-24.121093-6.96875zm1.386719-21.558594c-9.246094 4.367188-15.726563 12.980469-17.335938 23.042969l-5.671875 35.511719c-.605469 3.800781-3.839844 6.558594-7.6875 6.558594s-7.082031-2.757813-7.6875-6.558594l-5.671875-35.507812c-1.601562-10.027344-8.152344-18.679688-17.523438-23.136719-25.019531-11.898438-40.773437-36.476563-41.105468-64.144531-.476563-39.253907 31.03125-71.941407 70.242187-72.867188.585938-.015625 1.171875-.023438 1.757813-.023438 18.921875 0 36.722656 7.238282 50.289062 20.484376 13.992188 13.667968 21.695313 31.960937 21.695313 51.511718 0 27.722656-16.210938 53.285156-41.300781 65.128906zm106.292968-132.84375c-.582031 4.820313-3.246094 9.144532-6.332031 14.144532-4.550781 7.382812-9.707031 15.742187-8.503906 27.28125.695312 6.671875 3.148437 12.589844 5.523437 18.3125 4.117188 9.933594 6.257813 15.890625 2.332032 22.738281-4.367188 7.625-16.4375 7.527344-25.792969 6.105469-6.265625-.949219-12.992188-2.871094-18.695313-5.023438.96875-5.175781 1.476563-10.476562 1.476563-15.84375 0-23.625-9.3125-45.730468-26.214844-62.242187-.222656-.214844-.453125-.414063-.675781-.625 4.191406-7.558594 13.484375-17.9375 20.429687-22.515625 10.199219-6.726563 23.609375-9.023438 35.863281-6.148438 11.355469 2.667969 22.125 11.066406 20.589844 23.816406zm0 0"/><path d="m238.53125 177.199219c-4.140625 0-7.5 3.355469-7.5 7.5v13c0 4.140625 3.359375 7.5 7.5 7.5 4.144531 0 7.5-3.359375 7.5-7.5v-13c0-4.144531-3.355469-7.5-7.5-7.5zm0 0"/><path d="m299.375 177.199219c-4.140625 0-7.5 3.355469-7.5 7.5v13c0 4.140625 3.359375 7.5 7.5 7.5s7.5-3.359375 7.5-7.5v-13c0-4.144531-3.359375-7.5-7.5-7.5zm0 0"/></svg>