<svg viewBox="-21 0 480 480.04816" xmlns="http://www.w3.org/2000/svg"><path d="m433.199219 319.25c-3.148438-5.507812-7.890625-9.933594-13.597657-12.699219-2.578124-1.28125-5.320312-2.1875-8.152343-2.695312-7.503907-1.449219-15.277344-.15625-21.90625 3.648437l-13.519531 7.816406v-11.273437c0-13.253906-10.746094-24-24-24h-9.472657c.949219-2.5625 1.445313-5.265625 1.472657-8v-16c-.027344-2.730469-.523438-5.4375-1.472657-8h9.472657c13.253906 0 24-10.742187 24-24v-16c0-13.253906-10.746094-24-24-24h-33.742188c41.71875-18.125 64.992188-63.046875 55.734375-107.582031-9.257813-44.539063-48.503906-76.464844-93.992187-76.464844-45.488282 0-84.734376 31.925781-93.992188 76.464844-9.253906 44.535156 14.015625 89.457031 55.738281 107.582031h-33.746093c-13.253907 0-24 10.746094-24 24v16c.027343 2.734375.523437 5.4375 1.472656 8h-9.472656c-13.253907 0-24 10.746094-24 24v16c0 13.257813 10.746093 24 24 24h9.472656c-.949219 2.5625-1.445313 5.269531-1.472656 8v9.882813l-1.871094-.496094c-3.382813-.902344-6.867188-1.371094-10.367188-1.386719h-50.800781c-7.253906.007813-14.367187 1.976563-20.59375 5.699219l-20.367187 12.191406v-25.890625h-80.0000005v176h80.0000005v-28.078125l23.394531 9.246094c4.691406 1.894531 9.707031 2.855468 14.765625 2.832031h128.71875c7.453125.003906 14.753906-2.074219 21.089844-5.992187l153.601562-95.09375c9.886719-5.710938 15.949219-16.292969 15.871094-27.710938-.003906-5.617188-1.472656-11.132812-4.265625-16zm-233.175781-223.203125c0-44.179687 35.816406-80 80-80 44.183593 0 80 35.820313 80 80 0 44.183594-35.816407 80-80 80-44.160157-.046875-79.949219-35.835937-80-80zm100.242187 262.992187c-2.378906-6.164062-6.59375-11.445312-12.074219-15.136718l38.152344.089844zm-100.242187-134.992187v-16c0-4.417969 3.582031-8 8-8h144c4.417968 0 8 3.582031 8 8v16c0 4.417969-3.582032 8-8 8v-16h-16v16h-16v-16h-16v16h-16v-16h-16v16h-16v-16h-16v16h-16v-16h-16v16c-4.417969 0-8-3.582031-8-8zm-32 48v-16c0-4.417969 3.582031-8 8-8h144c4.417968 0 8 3.582031 8 8v16c0 4.417969-3.582032 8-8 8v-16h-16v16h-16v-16h-16v16h-16v-16h-16v16h-16v-16h-16v16h-16v-16h-16v16c-4.417969 0-8-3.582031-8-8zm32 32c0-4.417969 3.582031-8 8-8h144c4.417968 0 8 3.582031 8 8v16c-.023438 2.445313-1.148438 4.753906-3.0625 6.273437l-1.96875 1.136719c-.941407.382813-1.949219.585938-2.96875.589844v-16h-16v16h-16v-16h-16v16h-16v-16h-16v16h-16v-16h-16v16h-3.113282l-12.886718-3.429687v-12.570313h-16v8.296875l-8-2.136719zm-136 160h-48v-144h48zm349.3125-114.808594-153.769532 95.210938c-3.800781 2.355469-8.1875 3.601562-12.664062 3.597656h-128.71875c-3.015625.019531-6.003906-.550781-8.800782-1.679687l-29.359374-11.597657v-86.183593l28.578124-17.105469c3.742188-2.242188 8.019532-3.429688 12.382813-3.433594h50.800781c2.105469 0 4.207032.269531 6.246094.800781l96.394531 25.800782c6.445313 1.765624 11.136719 7.316406 11.796875 13.96875.058594.855468 0 2.789062 0 2.789062-.042968.976562-.195312 1.945312-.445312 2.890625-1.863282 6.914063-8.09375 11.753906-15.257813 11.839844-1.191406-.089844-5.894531-1.046875-9.269531-1.816407l-83.113281-22.238281-4.144531 15.453125 83.398437 22.3125c4.234375 1.125 8.550781 1.890625 12.914063 2.28125 14.457031-.023437 27.113281-9.722656 30.886718-23.679687.136719-.503907.136719-1.042969.242188-1.554688l96.117187-55.511719c3.320313-1.875 7.203125-2.507812 10.945313-1.773437 1.410156.253906 2.773437.707031 4.054687 1.34375 2.828125 1.347656 5.179688 3.523437 6.738281 6.238281 1.414063 2.449219 2.164063 5.226563 2.175782 8.058594.023437 5.789062-3.085938 11.140625-8.128906 13.988281zm0 0"/><path d="m288.023438 152.046875v-16.796875c13.929687-2.609375 24-11.816406 24-23.203125 0-13.460937-14.054688-24-32-24-9.765626 0-16-4.734375-16-8 0-3.261719 6.234374-8 16-8 9.769531 0 16 4.738281 16 8h16c0-11.367187-10.070313-20.574219-24-23.199219v-16.800781h-16v16.800781c-13.925782 2.609375-24 11.816406-24 23.199219 0 13.464844 14.058593 24 32 24 9.769531 0 16 4.738281 16 8 0 3.265625-6.230469 8-16 8-9.765626 0-16-4.734375-16-8h-16c0 11.371094 10.074218 20.578125 24 23.203125v16.796875zm0 0"/></svg>