<svg id="Layer_1_1_" enable-background="new 0 0 64 64" height="512" viewBox="0 0 64 64" width="512" xmlns="http://www.w3.org/2000/svg"><path d="m21 24.25c-.965 0-1.75.785-1.75 1.75s.785 1.75 1.75 1.75 1.75-.785 1.75-1.75-.785-1.75-1.75-1.75zm-.25 1.75c0-.138.112-.25.25-.25s.25.112.25.25c0 .275-.5.275-.5 0z"/><path d="m31 27.75c.965 0 1.75-.785 1.75-1.75s-.785-1.75-1.75-1.75-1.75.785-1.75 1.75.785 1.75 1.75 1.75zm0-2c.138 0 .25.112.25.25 0 .275-.5.275-.5 0 0-.138.112-.25.25-.25z"/><path d="m29.75 31h-1.5c0 1.24-1.009 2.25-2.25 2.25s-2.25-1.01-2.25-2.25h-1.5c0 2.067 1.682 3.75 3.75 3.75s3.75-1.683 3.75-3.75z"/><path d="m49 31c-6.487 0-11.863 4.781-12.83 11h-4.17v-4.617c.863-.501 1.675-1.101 2.406-1.819 1.833-1.8 3.002-4.082 3.416-6.563h.678c1.93 0 3.5-1.57 3.5-3.5 0-1.391-.822-2.585-2-3.149v-4.352c0-7.72-6.28-14-14-14-1.304 0-2.561.193-3.76.528-1.671-1.61-3.903-2.528-6.24-2.528-4.962 0-9 4.037-9 9v7.704c0 6.566-1.686 13.071-4.874 18.811-.228.41-.14.923.211 1.234.188.166.425.251.663.251.206 0 .412-.063.588-.191l3.519-2.559c2.682-1.951 5.099-4.237 7.229-6.777.772 3.33 2.858 6.157 5.664 7.846v4.681h-8c-3.86 0-7 3.141-7 7v12c0 .553.448 1 1 1h40c.552 0 1-.447 1-1v-4.17c.654.102 1.318.17 2 .17 7.168 0 13-5.832 13-13s-5.832-13-13-13zm8.658 19.762c-1.526-1.554-2.45-3.589-2.619-5.762h4.91c-.196 2.162-1.023 4.141-2.291 5.762zm-17.316-13.524c1.526 1.554 2.45 3.589 2.619 5.762h-4.91c.196-2.162 1.023-4.141 2.291-5.762zm9.658 5.762v-9.949c2.55.231 4.846 1.337 6.596 3.013-1.952 1.824-3.211 4.297-3.521 6.936zm-2 0h-3.039c-.174-2.726-1.325-5.282-3.25-7.216 1.709-1.518 3.885-2.516 6.289-2.733zm-5.102 2c-.295 2.06-1.284 3.987-2.805 5.43-1.127-1.556-1.86-3.413-2.043-5.43zm2.026 0h3.076v9.949c-2.55-.231-4.846-1.337-6.596-3.013 1.952-1.824 3.211-4.297 3.52-6.936zm5.076 0h3.039c.174 2.726 1.325 5.282 3.25 7.216-1.709 1.518-3.885 2.516-6.289 2.733zm5.102-2c.295-2.06 1.284-3.987 2.805-5.43 1.127 1.556 1.86 3.413 2.043 5.43zm-18.099 6h-.003v11h-22v-16h3.067c.322 3.051 2.082 5.808 4.778 7.349l2.659 1.52c.154.087.325.131.496.131s.342-.044.496-.132l2.659-1.52c2.696-1.541 4.456-4.298 4.778-7.349h2.067c0 1.772.359 3.461 1.003 5.001zm1.497-22h-.5v-3h.5c.827 0 1.5.673 1.5 1.5s-.673 1.5-1.5 1.5zm-.5-9v4h-.038c-.182-2.733-1.103-5.352-2.738-7.673-2.291-2.75-5.653-4.327-9.224-4.327-6.611 0-11.994 5.378-12 11.989 0 .004.001.007.001.011h-.001v-4c0-6.617 5.383-12 12-12s12 5.383 12 12zm-2.038 4c-5.738-.017-10.715-3.707-12.393-9.193-.052-.171-.146-.319-.27-.436.86-.242 1.765-.371 2.701-.371 2.976 0 5.777 1.314 7.637 3.542 1.353 1.924 2.147 4.14 2.325 6.458zm-14.361-8.979c-.792 3.046-2.775 5.662-5.455 7.271.554-3.198 2.631-5.881 5.455-7.271zm-8.101 10.979h.5v2.635c0 .123.014.243.018.365h-.518c-.827 0-1.5-.673-1.5-1.5s.673-1.5 1.5-1.5zm-7.569 10.633-.255.185c2.183-5.075 3.324-10.574 3.324-16.114v-7.704c0-3.859 3.14-7 7-7 1.481 0 2.91.473 4.092 1.326-4.771 2.233-8.092 7.067-8.092 12.674v4.351c-1.178.564-2 1.758-2 3.149 0 1.509.965 2.786 2.306 3.276-1.904 2.18-4.033 4.153-6.375 5.857zm10.069-7.998v-4.014c2.945-1.407 5.311-3.794 6.677-6.714 2.537 4.931 7.605 8.093 13.323 8.093v3c0 2.706-1.063 5.24-2.995 7.137-1.93 1.895-4.459 2.92-7.193 2.861-5.41-.099-9.812-4.747-9.812-10.363zm9.775 12.363c.077.001.152.002.228.002 1.385 0 2.728-.246 3.997-.694v4.694c0 .553.448 1 1 1h.933c-.311 2.334-1.696 4.427-3.77 5.612l-2.163 1.237-2.163-1.236c-2.075-1.185-3.459-3.278-3.77-5.612h.933c.552 0 1-.447 1-1v-4.723c1.187.437 2.454.696 3.775.72zm-18.775 10.002c0-2.757 2.243-5 5-5h1v16h-6zm38 11h-6v-7.705c1.557 1.874 3.631 3.301 6 4.069z"/><path d="m54.647 29.024c.979.369 1.929.84 2.824 1.398l1.06-1.695c-1.006-.629-2.076-1.159-3.177-1.574z"/><path d="m43.353 29.024c2.98-1.124 6.314-1.324 9.413-.579l.469-1.943c-3.487-.842-7.233-.615-10.587.651z"/></svg>